<svg width="18" height="18" viewBox="0 0 18 18" fill="none" xmlns="http://www.w3.org/2000/svg">
<path d="M5.04582 1.76847L6.25565 1.40371C6.65494 1.28352 7.08431 1.31268 7.46367 1.48576C7.84304 1.65883 8.14649 1.964 8.31742 2.34434L9.16561 4.2306C9.31282 4.55784 9.35386 4.92296 9.28295 5.27471C9.21204 5.62646 9.03274 5.94717 8.77025 6.19181L7.47922 7.39476C7.30621 7.55903 7.43737 8.19923 8.06946 9.29476C8.70217 10.3909 9.19122 10.8244 9.41669 10.7569L11.1081 10.2398C11.4509 10.1349 11.818 10.1399 12.1578 10.2542C12.4977 10.3684 12.7932 10.5862 13.0031 10.8768L14.2085 12.5476C14.452 12.885 14.5648 13.2993 14.5258 13.7135C14.4869 14.1278 14.2989 14.5138 13.9968 14.7999L13.0649 15.6824C12.7641 15.9673 12.3931 16.1673 11.9897 16.262C11.5864 16.3567 11.1651 16.3427 10.7689 16.2214C8.81647 15.6237 7.00828 13.8499 5.32002 10.9249C3.62801 7.99562 2.98905 5.52475 3.43439 3.50608C3.5242 3.09932 3.72088 2.72387 4.00413 2.41844C4.28739 2.113 4.64697 1.88864 5.04582 1.76847Z" fill="white"/>
</svg>
