<svg width="15" height="12" viewBox="0 0 15 12" fill="none" xmlns="http://www.w3.org/2000/svg">
<path d="M14.882 3.30344V9.53546C14.882 10.1152 14.6516 10.6713 14.2417 11.0812C13.8317 11.4912 13.2757 11.7215 12.6959 11.7215H3.07723C2.49745 11.7215 1.94142 11.4912 1.53146 11.0812C1.12149 10.6713 0.891174 10.1152 0.891174 9.53546V3.30344L7.66446 7.28906C7.73175 7.32875 7.80844 7.34968 7.88656 7.34968C7.96468 7.34968 8.04138 7.32875 8.10867 7.28906L14.882 3.30344ZM12.6959 0.354004C13.2338 0.353919 13.7528 0.552154 14.1537 0.910784C14.5546 1.26941 14.8092 1.76326 14.8688 2.29785L7.88656 6.40502L0.904291 2.29785C0.96389 1.76326 1.21849 1.26941 1.61939 0.910784C2.02029 0.552154 2.53934 0.353919 3.07723 0.354004H12.6959Z" fill="white"/>
</svg>
